<?xml version="1.0" encoding="UTF-8"?>
<svg version="1.1" xmlns="http://www.w3.org/2000/svg" width="512" height="512">
<path d="M0 0 C0.90472964 -0.00297112 1.80945929 -0.00594224 2.74160498 -0.0090034 C5.79166901 -0.01771716 8.8416939 -0.0192009 11.89176941 -0.02069092 C14.07111699 -0.0253172 16.25046376 -0.0303416 18.42980957 -0.03573608 C24.3637216 -0.04888038 30.29762232 -0.05530899 36.23154664 -0.05974674 C39.93590781 -0.06267419 43.64026587 -0.06677836 47.34462547 -0.07125092 C59.59241242 -0.08571806 71.84019083 -0.09504437 84.08798555 -0.09911743 C84.74865415 -0.0993402 85.40932274 -0.09956296 86.0900116 -0.09979248 C86.75148552 -0.10001391 87.41295944 -0.10023534 88.09447803 -0.10046348 C98.14607709 -0.10416593 108.19761615 -0.11898448 118.24919128 -0.14080811 C129.91638054 -0.16605573 141.58352263 -0.18098335 153.25074023 -0.18249393 C159.42858115 -0.18354372 165.60632621 -0.18948859 171.78414345 -0.20731354 C177.59450877 -0.22375155 183.40470575 -0.22597049 189.21508598 -0.21717453 C191.34963048 -0.21640186 193.48418387 -0.22077694 195.61870575 -0.23063278 C198.52912792 -0.24328477 201.43894778 -0.23751217 204.34936523 -0.22705078 C205.19722731 -0.23510719 206.04508938 -0.24316359 206.91864425 -0.25146413 C211.52207057 -0.21267323 214.67519908 0.06789863 218.36515808 3.14044189 C219.53923074 6.66265987 219.4880747 9.42592394 219.4854126 13.1448822 C219.48669423 14.22065961 219.48669423 14.22065961 219.48800176 15.31816989 C219.48965214 17.72729554 219.48414241 20.13635193 219.47868347 22.54547119 C219.47840148 24.27002969 219.47855957 25.9945883 219.47912598 27.71914673 C219.47941348 32.40684658 219.47352435 37.09452096 219.46655202 41.78221488 C219.46031065 46.67895107 219.45971406 51.57568781 219.45852661 56.47242737 C219.45541561 65.74777494 219.44720533 75.02311076 219.43717712 84.29845315 C219.42600882 94.85696595 219.42050372 105.41547929 219.41548169 115.97399652 C219.40502254 137.69615154 219.38742755 159.41829598 219.36515808 181.14044189 C220.0623785 181.13767652 220.75959892 181.13491114 221.47794724 181.13206196 C238.43677673 181.06583132 255.3955734 181.01617557 272.35450363 180.98500538 C280.55569348 180.96953135 288.75679705 180.94843166 296.95793152 180.91412354 C304.10539566 180.88423751 311.25279731 180.86487079 318.4003222 180.85817641 C322.18549092 180.85426278 325.97048087 180.84505424 329.75559235 180.82325172 C333.31783855 180.80289904 336.87983222 180.79660555 340.44213104 180.80111885 C342.37370014 180.79989918 344.3052417 180.78375062 346.23674011 180.7671814 C347.38656372 180.77130539 348.53638733 180.77542938 349.72105408 180.77967834 C350.72027767 180.77691297 351.71950127 180.77414759 352.74900436 180.77129841 C355.78744717 181.20002756 357.160122 182.04012727 359.36515808 184.14044189 C359.86125183 186.07794189 359.86125183 186.07794189 359.80265808 188.14044189 C359.80136902 188.82106689 359.80007996 189.50169189 359.79875183 190.20294189 C359.36515808 192.14044189 359.36515808 192.14044189 356.36515808 195.14044189 C352.73515808 195.14044189 349.10515808 195.14044189 345.36515808 195.14044189 C345.36515808 255.20044189 345.36515808 315.26044189 345.36515808 377.14044189 C348.66515808 377.14044189 351.96515808 377.14044189 355.36515808 377.14044189 C357.34515808 378.62544189 357.34515808 378.62544189 359.36515808 380.14044189 C359.75835593 382.95998619 359.9027732 385.38447678 359.86125183 388.20294189 C359.86270706 388.99063965 359.86416229 389.7783374 359.86566162 390.58990479 C359.86400264 392.25424907 359.8524412 393.9186087 359.83171082 395.58282471 C359.80276149 398.13133866 359.81109918 400.67777189 359.82414246 403.22637939 C359.81790475 404.84357701 359.80951355 406.46076806 359.79875183 408.07794189 C359.80168747 408.84050293 359.80462311 409.60306396 359.80764771 410.38873291 C359.71362402 415.65794126 359.71362402 415.65794126 357.96305847 418.08184814 C354.17245518 420.59308663 350.70054365 420.28042129 346.29031563 420.26907635 C345.44164274 420.27082938 344.59296984 420.27258242 343.71857959 420.27438858 C340.84360525 420.27908102 337.96868077 420.2765748 335.09370422 420.27415466 C333.02417868 420.27602101 330.95465348 420.278321 328.88512886 420.28101999 C323.17377596 420.28716626 317.46243764 420.28700109 311.75108218 420.28582561 C305.60101515 420.28562231 299.45095289 420.29113354 293.30088806 420.29588318 C281.24268423 420.30420575 269.18448663 420.30695167 257.12628068 420.30749556 C247.32944984 420.30795456 237.53262058 420.31001008 227.73579025 420.31319618 C224.91889982 420.31409368 222.10200938 420.3149835 219.28511894 420.31587106 C218.5848918 420.31609211 217.88466467 420.31631316 217.16321853 420.3165409 C197.45885485 420.32269775 177.75449172 420.3266412 158.05012703 420.32619762 C157.30676408 420.32618205 156.56340114 420.32616647 155.79751205 420.32615042 C152.02957781 420.3260673 148.26164358 420.32596826 144.49370934 420.32586571 C143.37115998 420.32583579 143.37115998 420.32583579 142.22593285 420.32580527 C140.71255299 420.32576483 139.19917313 420.32572303 137.68579327 420.32567988 C114.13538657 420.325067 90.58499426 420.33257487 67.03459167 420.34625244 C40.59463117 420.36160176 14.15468013 420.37021936 -12.28528512 420.36928922 C-15.10280426 420.36921458 -17.92032341 420.36916588 -20.73784256 420.3691349 C-21.43162141 420.36912325 -22.12540026 420.36911159 -22.84020271 420.36909959 C-34.02148144 420.36906877 -45.20274771 420.37546394 -56.38402273 420.38406717 C-67.61505284 420.39253014 -78.84606486 420.39337218 -90.077098 420.38695785 C-96.16557508 420.38368005 -102.25400686 420.38368106 -108.34247971 420.3923111 C-113.90994282 420.40012175 -119.47732428 420.39880084 -125.04478528 420.39002696 C-127.06497208 420.3884799 -129.08516482 420.39035299 -131.10534464 420.39588704 C-133.83976941 420.40288486 -136.57390275 420.39770283 -139.30831718 420.38933086 C-140.10261885 420.39429904 -140.89692051 420.39926722 -141.71529192 420.40438595 C-148.55002367 420.35978678 -148.55002367 420.35978678 -151.63484192 418.14044189 C-153.20602694 414.99807185 -152.83990722 411.62772444 -152.87312317 408.17559814 C-152.88119492 407.38648544 -152.88926666 406.59737274 -152.89758301 405.78434753 C-152.91141939 404.11408687 -152.92214355 402.44379799 -152.93000793 400.77349854 C-152.94725228 398.21623516 -152.99114344 395.66025436 -153.03523254 393.10333252 C-153.04535681 391.48159725 -153.05387375 389.85985098 -153.06062317 388.23809814 C-153.07813126 387.47240005 -153.09563934 386.70670197 -153.11367798 385.9178009 C-153.10481262 383.75396729 -153.10481262 383.75396729 -152.63484192 380.14044189 C-148.63484192 377.14044189 -148.63484192 377.14044189 -138.63484192 377.14044189 C-138.63484192 317.08044189 -138.63484192 257.02044189 -138.63484192 195.14044189 C-142.26484192 195.14044189 -145.89484192 195.14044189 -149.63484192 195.14044189 C-153.06558196 191.70970186 -153.06558196 191.70970186 -153.07234192 188.14044189 C-153.09167786 187.45981689 -153.11101379 186.77919189 -153.13093567 186.07794189 C-152.41053306 183.26440098 -151.08929709 182.62351455 -148.63484192 181.14044189 C-146.03430557 180.77129841 -146.03430557 180.77129841 -143.02870178 180.77967834 C-141.88729233 180.77555435 -140.74588287 180.77143036 -139.56988525 180.7671814 C-138.32191666 180.77796722 -137.07394806 180.78875305 -135.78816223 180.79986572 C-133.81218803 180.7992086 -133.81218803 180.7992086 -131.79629517 180.79853821 C-128.18702014 180.79767748 -124.57804421 180.81531561 -120.96883869 180.83626008 C-117.19588042 180.85501399 -113.42291529 180.8567763 -109.6499176 180.8603363 C-102.50658408 180.86966056 -95.36338829 180.89427945 -88.22011542 180.92438477 C-80.08718597 180.95791697 -71.95424993 180.97441181 -63.82126856 180.98947108 C-47.09237905 181.02082872 -30.36362806 181.07359655 -13.63484192 181.14044189 C-13.6376073 180.23099666 -13.64037268 179.32155142 -13.64322186 178.38454723 C-13.70941462 156.27707707 -13.75908979 134.16962394 -13.79027843 112.06207561 C-13.80576111 101.37112054 -13.82687733 90.68023153 -13.86116028 79.98931885 C-13.89101982 70.67339228 -13.91040673 61.35751354 -13.9171074 52.04154044 C-13.92102551 47.10673689 -13.93026258 42.17207019 -13.95203209 37.23731041 C-13.97234287 32.59576259 -13.97868672 27.95440847 -13.97416496 23.31282043 C-13.97499259 21.60637168 -13.98099039 19.89991667 -13.99245834 18.19350624 C-14.00731815 15.86903362 -14.00381983 13.54529855 -13.99560547 11.22080994 C-13.99837085 9.91831645 -14.00113623 8.61582296 -14.0039854 7.27385998 C-13.63484192 4.14044189 -13.63484192 4.14044189 -12.2372942 2.26041889 C-8.3539435 -0.45371089 -4.57420062 -0.00463805 0 0 Z M0.36515808 15.14044189 C0.36515808 69.92044189 0.36515808 124.70044189 0.36515808 181.14044189 C4.98515808 181.14044189 9.60515808 181.14044189 14.36515808 181.14044189 C14.37324493 179.32022522 14.38133179 177.50000854 14.3896637 175.62463379 C14.46704621 158.49622163 14.55464711 141.36788886 14.65268517 124.23958206 C14.70282788 115.43311555 14.74927061 106.62665842 14.78703308 97.82012939 C14.81995244 90.14523789 14.85978333 82.47041887 14.90794814 74.79560733 C14.93321371 70.73106364 14.95499481 66.66656804 14.96850204 62.60196686 C14.9813219 58.77705379 15.00337541 54.95230565 15.03254128 51.12748337 C15.04161766 49.72303168 15.04730743 48.31855344 15.04937172 46.91407394 C15.05269364 44.99740667 15.06934609 43.08077629 15.08668518 41.16418457 C15.09221594 40.09121754 15.0977467 39.0182505 15.10344505 37.91276932 C15.36709143 35.11996194 15.83354983 33.4719034 17.36515808 31.14044189 C20.30822655 29.66890766 22.94431489 29.98870217 26.22990417 29.96343994 C27.28872047 29.95358315 27.28872047 29.95358315 28.368927 29.94352722 C30.70881756 29.92378894 33.04864397 29.91213128 35.38859558 29.90216064 C36.18714588 29.89808512 36.98569618 29.89400959 37.80844498 29.88981056 C42.03405245 29.86894878 46.25962743 29.85464686 50.48527527 29.84527588 C54.85248051 29.83420372 59.2191773 29.79979533 63.58620262 29.76010418 C66.9422247 29.73397746 70.29812482 29.72558765 73.65423965 29.7219944 C75.26421675 29.71711914 76.87418807 29.70547841 78.48406601 29.68695641 C80.73699686 29.6626447 82.98860146 29.66351441 85.24162292 29.67047119 C86.52354523 29.66460495 87.80546753 29.65873871 89.12623596 29.6526947 C93.04365744 30.24261667 93.96142844 31.05582934 96.36515808 34.14044189 C96.87296677 36.92838669 96.87296677 36.92838669 96.88414001 40.20214844 C96.89805283 41.44452774 96.91196564 42.68690704 96.92630005 43.9669342 C96.92158712 45.34085214 96.91649318 46.71476882 96.91105652 48.08868408 C96.9197919 49.53754283 96.93027757 50.98639193 96.94238281 52.43522644 C96.97026821 56.36675898 96.97364695 60.29797715 96.97266293 64.22959423 C96.97578987 68.33896634 97.00140348 72.4481964 97.02464294 76.55749512 C97.06522332 84.33824803 97.08554841 92.11891708 97.09861684 99.89975953 C97.11448001 108.7582838 97.15289272 117.61666524 97.19321012 126.47510672 C97.27563691 144.69683997 97.32971162 162.91855975 97.36515808 181.14044189 C100.66515808 181.14044189 103.96515808 181.14044189 107.36515808 181.14044189 C107.36846823 180.39775968 107.37177837 179.65507746 107.37518883 178.88988972 C107.45640104 160.82070739 107.54848768 142.75161047 107.65268517 124.68254566 C107.70281187 115.94448917 107.7492548 107.20644207 107.78703308 98.46832275 C107.81996907 90.85238507 107.85980921 83.23652019 107.90794814 75.62066287 C107.93319714 71.58794544 107.95498315 67.55527622 107.96850204 63.52250099 C107.98133691 59.72631166 108.00340667 55.93028776 108.03254128 52.13418961 C108.04160591 50.74144594 108.04730469 49.34867564 108.04937172 47.95590401 C108.05270195 46.05272335 108.06936932 44.14958002 108.08668518 42.24647522 C108.09498132 40.64946887 108.09498132 40.64946887 108.10344505 39.02019978 C108.37731445 36.00667935 108.99777468 33.8328414 110.36515808 31.14044189 C113.30974736 29.66814726 115.94275101 29.99683946 119.22990417 29.97930908 C119.93578171 29.97434418 120.64165924 29.96937927 121.368927 29.96426392 C123.70882637 29.94963469 126.04865795 29.94283906 128.38859558 29.93731689 C130.01283267 29.93156606 131.63706973 29.92580832 133.26130676 29.92004395 C136.66929949 29.90953179 140.07726861 29.90369054 143.48527527 29.90020752 C147.85238755 29.89472235 152.21918812 29.87069493 156.58620262 29.84223557 C159.94222424 29.8236125 163.29817073 29.81840377 166.65423965 29.81687164 C168.26419911 29.81384382 169.8741572 29.80581088 171.48406601 29.79268646 C173.73682624 29.77563243 175.98882434 29.77750423 178.24162292 29.78399658 C179.52354523 29.78035095 180.80546753 29.77670532 182.12623596 29.77294922 C185.70738987 30.179272 186.86413111 30.61106801 189.36515808 33.14044189 C189.87296677 35.82095623 189.87296677 35.82095623 189.88414001 39.11985779 C189.89805283 40.36927658 189.91196564 41.61869537 189.92630005 42.90597534 C189.9215868 44.29297005 189.91649282 45.6799635 189.91105652 47.06695557 C189.91978926 48.52551885 189.930274 49.98407254 189.94238281 51.44261169 C189.97030061 55.40519346 189.97364624 59.36746354 189.97266293 63.33012938 C189.9757871 67.47020347 190.0013949 71.61013615 190.02464294 75.75013733 C190.06524464 83.59113068 190.0855534 91.43204078 190.09861684 99.27312309 C190.11447281 108.19933703 190.15288246 117.12540902 190.19321012 126.05154073 C190.27566609 144.4144664 190.32892252 162.77737087 190.36515808 181.14044189 C194.98515808 181.14044189 199.60515808 181.14044189 204.36515808 181.14044189 C204.36515808 126.36044189 204.36515808 71.58044189 204.36515808 15.14044189 C137.04515808 15.14044189 69.72515808 15.14044189 0.36515808 15.14044189 Z M29.36515808 43.14044189 C29.36515808 88.68044189 29.36515808 134.22044189 29.36515808 181.14044189 C47.18515808 181.14044189 65.00515808 181.14044189 83.36515808 181.14044189 C83.36515808 135.60044189 83.36515808 90.06044189 83.36515808 43.14044189 C65.54515808 43.14044189 47.72515808 43.14044189 29.36515808 43.14044189 Z M122.36515808 43.14044189 C122.36515808 88.68044189 122.36515808 134.22044189 122.36515808 181.14044189 C140.18515808 181.14044189 158.00515808 181.14044189 176.36515808 181.14044189 C176.36515808 135.60044189 176.36515808 90.06044189 176.36515808 43.14044189 C158.54515808 43.14044189 140.72515808 43.14044189 122.36515808 43.14044189 Z M-123.63484192 195.14044189 C-123.63484192 255.20044189 -123.63484192 315.26044189 -123.63484192 377.14044189 C-116.70484192 377.14044189 -109.77484192 377.14044189 -102.63484192 377.14044189 C-102.63484192 317.08044189 -102.63484192 257.02044189 -102.63484192 195.14044189 C-109.56484192 195.14044189 -116.49484192 195.14044189 -123.63484192 195.14044189 Z M-88.63484192 195.14044189 C-88.63484192 255.20044189 -88.63484192 315.26044189 -88.63484192 377.14044189 C-78.73484192 377.14044189 -68.83484192 377.14044189 -58.63484192 377.14044189 C-58.63484192 317.08044189 -58.63484192 257.02044189 -58.63484192 195.14044189 C-68.53484192 195.14044189 -78.43484192 195.14044189 -88.63484192 195.14044189 Z M-43.63484192 195.14044189 C-43.63484192 255.20044189 -43.63484192 315.26044189 -43.63484192 377.14044189 C-33.73484192 377.14044189 -23.83484192 377.14044189 -13.63484192 377.14044189 C-13.63484192 317.08044189 -13.63484192 257.02044189 -13.63484192 195.14044189 C-23.53484192 195.14044189 -33.43484192 195.14044189 -43.63484192 195.14044189 Z M0.36515808 195.14044189 C0.36515808 255.20044189 0.36515808 315.26044189 0.36515808 377.14044189 C10.26515808 377.14044189 20.16515808 377.14044189 30.36515808 377.14044189 C30.36515808 317.08044189 30.36515808 257.02044189 30.36515808 195.14044189 C20.46515808 195.14044189 10.56515808 195.14044189 0.36515808 195.14044189 Z M44.36515808 195.14044189 C44.36515808 255.20044189 44.36515808 315.26044189 44.36515808 377.14044189 C54.26515808 377.14044189 64.16515808 377.14044189 74.36515808 377.14044189 C74.36515808 317.08044189 74.36515808 257.02044189 74.36515808 195.14044189 C64.46515808 195.14044189 54.56515808 195.14044189 44.36515808 195.14044189 Z M88.36515808 195.14044189 C88.36515808 255.20044189 88.36515808 315.26044189 88.36515808 377.14044189 C98.26515808 377.14044189 108.16515808 377.14044189 118.36515808 377.14044189 C118.36515808 317.08044189 118.36515808 257.02044189 118.36515808 195.14044189 C108.46515808 195.14044189 98.56515808 195.14044189 88.36515808 195.14044189 Z M132.36515808 195.14044189 C132.36515808 255.20044189 132.36515808 315.26044189 132.36515808 377.14044189 C142.26515808 377.14044189 152.16515808 377.14044189 162.36515808 377.14044189 C162.36515808 317.08044189 162.36515808 257.02044189 162.36515808 195.14044189 C152.46515808 195.14044189 142.56515808 195.14044189 132.36515808 195.14044189 Z M177.36515808 195.14044189 C177.36515808 255.20044189 177.36515808 315.26044189 177.36515808 377.14044189 C186.27515808 377.14044189 195.18515808 377.14044189 204.36515808 377.14044189 C204.36515808 317.08044189 204.36515808 257.02044189 204.36515808 195.14044189 C195.45515808 195.14044189 186.54515808 195.14044189 177.36515808 195.14044189 Z M221.36515808 195.14044189 C221.36515808 255.20044189 221.36515808 315.26044189 221.36515808 377.14044189 C231.26515808 377.14044189 241.16515808 377.14044189 251.36515808 377.14044189 C251.36515808 317.08044189 251.36515808 257.02044189 251.36515808 195.14044189 C241.46515808 195.14044189 231.56515808 195.14044189 221.36515808 195.14044189 Z M265.36515808 195.14044189 C265.36515808 255.20044189 265.36515808 315.26044189 265.36515808 377.14044189 C275.26515808 377.14044189 285.16515808 377.14044189 295.36515808 377.14044189 C295.36515808 317.08044189 295.36515808 257.02044189 295.36515808 195.14044189 C285.46515808 195.14044189 275.56515808 195.14044189 265.36515808 195.14044189 Z M309.36515808 195.14044189 C309.36515808 255.20044189 309.36515808 315.26044189 309.36515808 377.14044189 C316.62515808 377.14044189 323.88515808 377.14044189 331.36515808 377.14044189 C331.36515808 317.08044189 331.36515808 257.02044189 331.36515808 195.14044189 C324.10515808 195.14044189 316.84515808 195.14044189 309.36515808 195.14044189 Z M-138.63484192 391.14044189 C-138.63484192 395.76044189 -138.63484192 400.38044189 -138.63484192 405.14044189 C21.08515808 405.14044189 180.80515808 405.14044189 345.36515808 405.14044189 C345.36515808 400.52044189 345.36515808 395.90044189 345.36515808 391.14044189 C185.64515808 391.14044189 25.92515808 391.14044189 -138.63484192 391.14044189 Z " fill="#000000" transform="translate(152.6348419189453,45.85955810546875)"/>
</svg>
