<?xml version="1.0" encoding="UTF-8"?>
<svg version="1.1" xmlns="http://www.w3.org/2000/svg" width="682" height="657">
<path d="M0 0 C225.06 0 450.12 0 682 0 C682 216.81 682 433.62 682 657 C456.94 657 231.88 657 0 657 C0 440.19 0 223.38 0 0 Z M332 118 C332 119.98 332 121.96 332 124 C332.33 124 332.66 124 333 124 C333 122.02 333 120.04 333 118 C332.67 118 332.34 118 332 118 Z M216 220 C217 222 217 222 217 222 Z M484 222 C485 224 485 224 485 224 Z M215 230 C215 231.98 215 233.96 215 236 C215.33 236 215.66 236 216 236 C216 234.02 216 232.04 216 230 C215.67 230 215.34 230 215 230 Z M484 237 C485 239 485 239 485 239 Z M454 256 C455 258 455 258 455 258 Z M453 263 C454 265 454 265 454 265 Z M451 273 C452 275 452 275 452 275 Z M564 354 C565 357 565 357 565 357 Z M564 359 C565 363 565 363 565 363 Z M593 392 C593 404.87 593 417.74 593 431 C593.33 431 593.66 431 594 431 C594 418.13 594 405.26 594 392 C593.67 392 593.34 392 593 392 Z M294 412 C294 412.33 294 412.66 294 413 C296.31 413 298.62 413 301 413 C301 412.67 301 412.34 301 412 C298.69 412 296.38 412 294 412 Z M359 412 C359 412.33 359 412.66 359 413 C369.56 413 380.12 413 391 413 C391 412.67 391 412.34 391 412 C380.44 412 369.88 412 359 412 Z M122 443 C126 444 126 444 126 444 Z M78 476 C78 477.65 78 479.3 78 481 C78.33 481 78.66 481 79 481 C79 479.35 79 477.7 79 476 C78.67 476 78.34 476 78 476 Z M429 496 C429 496.33 429 496.66 429 497 C436.26 497 443.52 497 451 497 C451 496.67 451 496.34 451 496 C443.74 496 436.48 496 429 496 Z M83 500 C84 503 84 503 84 503 Z M82 504 C83 507 83 507 83 507 Z M348 537 C348 537.33 348 537.66 348 538 C349.65 538 351.3 538 353 538 C353 537.67 353 537.34 353 537 C351.35 537 349.7 537 348 537 Z M378 537 C378 537.33 378 537.66 378 538 C380.31 538 382.62 538 385 538 C385 537.67 385 537.34 385 537 C382.69 537 380.38 537 378 537 Z M334 569 C334 569.33 334 569.66 334 570 C335.98 570 337.96 570 340 570 C340 569.67 340 569.34 340 569 C338.02 569 336.04 569 334 569 Z M363 569 C367 570 367 570 367 570 Z " fill="#000000" transform="translate(0,0)"/>
</svg>
